<svg width="566" height="188" viewBox="0 0 566 188" fill="none" xmlns="http://www.w3.org/2000/svg">
<path d="M565.354 184.354C565.549 184.158 565.549 183.842 565.354 183.646L562.172 180.464C561.976 180.269 561.66 180.269 561.464 180.464C561.269 180.66 561.269 180.976 561.464 181.172L564.293 184L561.464 186.828C561.269 187.024 561.269 187.34 561.464 187.536C561.66 187.731 561.976 187.731 562.172 187.536L565.354 184.354ZM428 184.5H565V183.5H428V184.5Z" fill="black"/>
<path d="M543.5 86.5C543.5 98.214 536.034 109.462 522.324 119.77C508.623 130.072 488.765 139.37 464.182 147.188C415.02 162.822 347.074 172.5 272 172.5C196.926 172.5 128.98 162.822 79.8185 147.188C55.235 139.37 35.377 130.072 21.6756 119.77C7.9656 109.462 0.5 98.214 0.5 86.5C0.5 74.786 7.9656 63.5381 21.6756 53.2299C35.377 42.9282 55.235 33.6297 79.8185 25.8117C128.98 10.1778 196.926 0.5 272 0.5C347.074 0.5 415.02 10.1778 464.182 25.8117C488.765 33.6297 508.623 42.9282 522.324 53.2299C536.034 63.5381 543.5 74.786 543.5 86.5Z" stroke="black"/>
</svg>
