<svg width="383" height="125" viewBox="0 0 383 125" fill="none" xmlns="http://www.w3.org/2000/svg">
<path d="M91.1997 68C91.1997 71.6 91.1997 75.2 91.1997 78.8C91.1997 82.4 91.1997 86 91.1997 89.6C91.1997 93.2 91.1997 96.8 91.1997 100.4C91.1997 104 91.1997 107.6 91.1997 111.2C91.1997 114.8 91.1997 118.4 91.1997 122H63.4797C63.4797 117.008 63.4797 112.016 63.4797 107.024C63.4797 102.032 63.4797 97.04 63.4797 92.048C63.4797 92 63.4557 91.976 63.4077 91.976C63.4077 91.976 63.3837 91.976 63.3357 91.976C63.3357 91.976 63.3357 92 63.3357 92.048L56.2797 122H37.9197C36.7197 117.008 35.5437 112.04 34.3917 107.096C33.2397 102.152 32.0637 97.208 30.8637 92.264C30.8637 92.216 30.8397 92.192 30.7917 92.192C30.7917 92.192 30.7677 92.192 30.7197 92.192C30.7197 92.192 30.7197 92.216 30.7197 92.264C30.7197 97.208 30.7197 102.152 30.7197 107.096C30.7197 112.04 30.7197 117.008 30.7197 122H4.43973C4.43973 118.4 4.43973 114.8 4.43973 111.2C4.43973 107.552 4.43973 103.928 4.43973 100.328C4.43973 96.68 4.43973 93.056 4.43973 89.456C4.43973 85.808 4.43973 82.184 4.43973 78.584C4.43973 76.808 4.43973 75.056 4.43973 73.328C4.43973 71.552 4.43973 69.776 4.43973 68H42.8157C43.5357 70.976 44.2317 73.952 44.9037 76.928C45.5757 79.856 46.2477 82.808 46.9197 85.784C47.6397 88.76 48.3357 91.736 49.0077 94.712C49.0077 94.76 49.0077 94.808 49.0077 94.856C49.0557 94.856 49.0797 94.856 49.0797 94.856C49.1277 94.808 49.1517 94.76 49.1517 94.712L54.9117 68H91.1997Z" fill="white"/>
<path d="M154.64 86.144H123.32C123.272 86.144 123.248 86.144 123.248 86.144V90.104C123.248 90.152 123.248 90.2 123.248 90.248C123.296 90.248 123.32 90.248 123.32 90.248H153.56V100.4H123.32C123.32 100.4 123.296 100.4 123.248 100.4C123.248 100.4 123.248 100.424 123.248 100.472C123.248 100.472 123.248 100.496 123.248 100.544V104.576C123.296 104.576 123.32 104.576 123.32 104.576H155.072V122H94.0882C94.0882 119.168 94.0882 116.336 94.0882 113.504C94.0882 110.624 94.0882 107.768 94.0882 104.936C94.0882 102.104 94.0882 99.272 94.0882 96.44C94.0882 93.56 94.0882 90.704 94.0882 87.872C94.0882 84.992 94.0882 82.136 94.0882 79.304C94.0882 77.432 94.0882 75.56 94.0882 73.688C94.0882 71.768 94.0882 69.872 94.0882 68H154.64V86.144Z" fill="white"/>
<path d="M200.343 68H228.063C228.063 69.776 228.063 71.576 228.063 73.4C228.063 75.176 228.063 76.976 228.063 78.8C228.063 80.576 228.063 82.376 228.063 84.2C228.063 85.976 228.063 87.776 228.063 89.6C228.063 91.376 228.063 93.176 228.063 95C228.063 99.512 228.063 104.024 228.063 108.536C228.063 113 228.063 117.488 228.063 122H194.727L185.655 96.08C185.655 96.032 185.631 96.008 185.583 96.008C185.583 96.008 185.559 96.008 185.511 96.008C185.511 96.008 185.511 96.032 185.511 96.08C185.511 100.304 185.511 104.624 185.511 109.04C185.511 113.456 185.511 117.776 185.511 122H157.791C157.791 118.4 157.791 114.8 157.791 111.2C157.791 107.6 157.791 104 157.791 100.4C157.791 96.8 157.791 93.2 157.791 89.6C157.791 86 157.791 82.4 157.791 78.8C157.791 75.2 157.791 71.6 157.791 68H190.047L200.199 97.88C200.247 97.88 200.271 97.88 200.271 97.88C200.319 97.88 200.343 97.88 200.343 97.88C200.343 97.832 200.343 97.808 200.343 97.808V68Z" fill="white"/>
<path d="M230.916 68H260.796C260.796 73.232 260.796 78.128 260.796 82.688C260.796 87.248 260.796 91.808 260.796 96.368C260.796 97.088 260.94 97.712 261.228 98.24C261.564 98.768 261.972 99.224 262.452 99.608C262.98 99.944 263.556 100.208 264.18 100.4C264.852 100.592 265.524 100.688 266.196 100.688C267.588 100.688 268.836 100.328 269.94 99.608C271.044 98.888 271.596 97.832 271.596 96.44C271.596 94.136 271.596 91.856 271.596 89.6C271.596 87.344 271.596 85.064 271.596 82.76C271.596 80.456 271.596 78.08 271.596 75.632C271.596 73.184 271.596 70.64 271.596 68H301.476C301.476 71.648 301.476 75.392 301.476 79.232C301.476 83.072 301.476 86.936 301.476 90.824C301.476 94.664 301.476 98.408 301.476 102.056C301.476 105.752 300.468 108.992 298.452 111.776C296.484 114.512 293.82 116.816 290.46 118.688C287.1 120.512 283.308 121.88 279.084 122.792C274.908 123.704 270.612 124.16 266.196 124.16C262.692 124.16 259.212 123.872 255.756 123.296C252.348 122.72 249.132 121.832 246.108 120.632C243.132 119.432 240.492 117.968 238.188 116.24C235.932 114.464 234.156 112.4 232.86 110.048C231.564 107.648 230.916 104.984 230.916 102.056C230.916 100.232 230.916 98.36 230.916 96.44C230.916 94.472 230.916 92.528 230.916 90.608C230.916 88.064 230.916 85.52 230.916 82.976C230.916 80.432 230.916 77.912 230.916 75.416C230.916 72.872 230.916 70.4 230.916 68Z" fill="white"/>
<path d="M40.3197 59.16C36.5277 59.16 33.0237 58.92 29.8077 58.44C26.5917 57.96 23.6157 57.264 20.8797 56.352C18.1917 55.44 15.7677 54.336 13.6077 53.04C11.4957 51.744 9.62373 50.28 7.99173 48.648C6.35973 47.016 4.99173 45.24 3.88773 43.32C2.83173 41.352 2.03973 39.264 1.51173 37.056C0.983727 34.848 0.719727 32.52 0.719727 30.072C0.719727 26.088 1.36773 22.512 2.66373 19.344C3.95973 16.176 5.78373 13.44 8.13573 11.136C10.5357 8.83203 13.3677 6.91203 16.6317 5.37603C19.9437 3.84003 23.5917 2.71203 27.5757 1.99202C31.5597 1.22403 35.8077 0.840027 40.3197 0.840027C48.2877 0.840027 55.0557 1.80003 60.6237 3.72003C66.1917 5.64003 70.5837 8.40003 73.7997 12C77.0637 15.6 79.1037 19.968 79.9197 25.104L49.3197 30.072C49.3197 28.968 49.0797 28.032 48.5997 27.264C48.1197 26.448 47.4717 25.8 46.6557 25.32C45.8397 24.84 44.8797 24.48 43.7757 24.24C42.7197 24 41.5677 23.88 40.3197 23.88C38.5917 23.88 37.0557 24.12 35.7117 24.6C34.3677 25.032 33.2877 25.704 32.4717 26.616C31.7037 27.48 31.3197 28.584 31.3197 29.928C31.3197 30.744 31.4637 31.488 31.7517 32.16C32.0397 32.832 32.4477 33.432 32.9757 33.96C33.5037 34.44 34.1277 34.848 34.8477 35.184C35.6157 35.472 36.4557 35.712 37.3677 35.904C38.2797 36.048 39.2637 36.12 40.3197 36.12C42.8637 36.12 44.9997 35.616 46.7277 34.608C48.4557 33.552 49.3197 32.04 49.3197 30.072L79.9197 33.168C79.3917 36.72 78.2157 40.056 76.3917 43.176C74.6157 46.296 72.1197 49.056 68.9037 51.456C65.7357 53.856 61.7757 55.728 57.0237 57.072C52.3197 58.464 46.7517 59.16 40.3197 59.16Z" fill="white"/>
<path d="M122.189 3.00002H152.069C152.069 6.02403 152.069 9.04803 152.069 12.072C152.069 15.096 152.069 18.12 152.069 21.144C152.069 24.168 152.069 27.216 152.069 30.288C152.069 34.704 152.069 39.144 152.069 43.608C152.069 48.072 152.069 52.536 152.069 57H122.189C122.189 54.072 122.189 51.144 122.189 48.216C122.189 45.288 122.189 42.36 122.189 39.432C122.189 39.384 122.165 39.36 122.117 39.36C122.117 39.312 122.093 39.288 122.045 39.288H112.181C112.133 39.288 112.109 39.312 112.109 39.36C112.109 39.36 112.109 39.384 112.109 39.432C112.109 42.36 112.109 45.288 112.109 48.216C112.109 51.144 112.109 54.072 112.109 57H82.2288C82.2288 54.12 82.2288 51.24 82.2288 48.36C82.2288 45.48 82.2288 42.6 82.2288 39.72C82.2288 36.84 82.2288 33.96 82.2288 31.08C82.2288 28.2 82.2288 25.32 82.2288 22.44C82.2288 19.56 82.2288 16.68 82.2288 13.8C82.2288 11.976 82.2288 10.176 82.2288 8.40003C82.2288 6.57603 82.2288 4.77602 82.2288 3.00002H112.109C112.109 5.30403 112.109 7.63203 112.109 9.98403C112.109 12.336 112.109 14.688 112.109 17.04C112.109 19.344 112.109 21.672 112.109 24.024C112.109 24.072 112.109 24.12 112.109 24.168C112.109 24.168 112.133 24.168 112.181 24.168H122.045C122.093 24.168 122.117 24.168 122.117 24.168C122.165 24.12 122.189 24.072 122.189 24.024C122.189 20.52 122.189 17.016 122.189 13.512C122.189 10.008 122.189 6.50403 122.189 3.00002Z" fill="white"/>
<path d="M213.468 3.00002C214.332 5.97603 215.172 8.97603 215.988 12C216.852 14.976 217.692 17.976 218.508 21C219.372 23.976 220.236 26.976 221.1 30C221.964 32.976 222.804 35.976 223.62 39C224.484 41.976 225.324 44.976 226.14 48C227.004 50.976 227.868 53.976 228.732 57H196.62L195.396 49.944C195.204 49.944 195.036 49.944 194.892 49.944C194.748 49.944 194.58 49.944 194.388 49.944H186.468C186.324 49.944 186.18 49.944 186.036 49.944C185.892 49.944 185.748 49.944 185.604 49.944L184.38 57H153.636C154.5 53.976 155.34 50.976 156.156 48C157.02 44.976 157.86 41.976 158.676 39C159.54 35.976 160.38 32.976 161.196 30C162.06 26.976 162.9 23.976 163.716 21C164.58 17.976 165.42 14.976 166.236 12C167.1 8.97603 167.94 5.97603 168.756 3.00002H213.468ZM186.468 44.832C186.468 44.88 186.468 44.904 186.468 44.904C186.468 44.904 186.492 44.904 186.54 44.904H194.46C194.508 44.904 194.532 44.904 194.532 44.904C194.532 44.856 194.532 44.832 194.532 44.832C194.532 44.832 194.436 44.256 194.244 43.104C194.052 41.904 193.788 40.416 193.452 38.64C193.164 36.816 192.852 34.896 192.516 32.88C192.18 30.816 191.868 28.872 191.58 27.048C191.292 25.224 191.028 23.736 190.788 22.584C190.596 21.432 190.5 20.856 190.5 20.856C190.5 20.856 190.476 20.856 190.428 20.856C190.428 20.856 190.332 21.432 190.14 22.584C189.948 23.736 189.684 25.224 189.348 27.048C189.06 28.872 188.748 30.816 188.412 32.88C188.076 34.896 187.764 36.816 187.476 38.64C187.188 40.416 186.948 41.904 186.756 43.104C186.564 44.256 186.468 44.832 186.468 44.832Z" fill="white"/>
<path d="M265.601 0.840027C274.433 0.840027 281.777 2.08803 287.633 4.58403C293.489 7.08003 297.881 10.512 300.809 14.88C303.737 19.248 305.201 24.264 305.201 29.928C305.201 33 304.745 35.976 303.833 38.856C302.921 41.688 301.481 44.352 299.513 46.848C297.545 49.296 295.001 51.456 291.881 53.328C288.761 55.152 285.017 56.568 280.649 57.576C276.329 58.632 271.313 59.16 265.601 59.16C261.521 59.16 257.777 58.872 254.369 58.296C251.009 57.768 247.961 57.024 245.225 56.064C242.489 55.056 240.065 53.856 237.953 52.464C235.889 51.072 234.089 49.536 232.553 47.856C231.065 46.128 229.817 44.304 228.809 42.384C227.849 40.464 227.129 38.448 226.649 36.336C226.217 34.224 226.001 32.088 226.001 29.928C226.001 27.096 226.361 24.408 227.081 21.864C227.849 19.32 228.953 16.968 230.393 14.808C231.881 12.648 233.705 10.728 235.865 9.04803C238.073 7.32003 240.641 5.85603 243.569 4.65602C246.497 3.40803 249.785 2.47203 253.433 1.84803C257.129 1.17603 261.185 0.840027 265.601 0.840027ZM265.673 23.736C263.993 23.736 262.553 23.928 261.353 24.312C260.201 24.648 259.265 25.128 258.545 25.752C257.873 26.328 257.369 27 257.033 27.768C256.745 28.488 256.601 29.232 256.601 30C256.601 31.008 256.889 31.992 257.465 32.952C258.041 33.912 259.001 34.704 260.345 35.328C261.689 35.952 263.465 36.264 265.673 36.264C266.969 36.264 268.097 36.144 269.057 35.904C270.065 35.664 270.905 35.352 271.577 34.968C272.297 34.536 272.873 34.056 273.305 33.528C273.785 32.952 274.121 32.376 274.313 31.8C274.505 31.176 274.601 30.552 274.601 29.928C274.601 29.208 274.433 28.488 274.097 27.768C273.809 27.048 273.329 26.4 272.657 25.824C271.985 25.2 271.073 24.696 269.921 24.312C268.769 23.928 267.353 23.736 265.673 23.736Z" fill="white"/>
<path d="M344.953 24.456C352.153 24.456 358.177 24.768 363.025 25.392C367.873 26.016 371.737 27 374.617 28.344C377.497 29.64 379.561 31.32 380.809 33.384C382.057 35.4 382.681 37.8 382.681 40.584C382.681 43.608 381.697 46.296 379.729 48.648C377.809 50.952 375.097 52.896 371.593 54.48C368.137 56.016 364.105 57.168 359.497 57.936C354.937 58.752 350.017 59.16 344.737 59.16C338.881 59.16 333.553 58.728 328.753 57.864C323.953 57 319.873 55.68 316.513 53.904C313.153 52.08 310.633 49.752 308.953 46.92C307.321 44.088 306.673 40.704 307.009 36.768L337.753 34.68C337.369 36.12 337.465 37.32 338.041 38.28C338.665 39.24 339.625 39.96 340.921 40.44C342.217 40.92 343.657 41.16 345.241 41.16C346.201 41.16 347.065 41.088 347.833 40.944C348.649 40.8 349.369 40.584 349.993 40.296C350.617 40.008 351.097 39.648 351.433 39.216C351.769 38.736 351.937 38.208 351.937 37.632C351.937 36.48 351.337 35.736 350.137 35.4C348.985 35.064 347.281 34.896 345.025 34.896C344.929 34.896 344.809 34.896 344.665 34.896C344.569 34.896 344.449 34.896 344.305 34.896C344.209 34.896 344.089 34.896 343.945 34.896C343.801 34.896 343.657 34.896 343.513 34.896C343.417 34.896 343.321 34.896 343.225 34.896C336.121 34.896 330.217 34.536 325.513 33.816C320.809 33.048 317.089 31.992 314.353 30.648C311.617 29.304 309.673 27.72 308.521 25.896C307.369 24.024 306.793 21.936 306.793 19.632C306.793 17.184 307.441 14.976 308.737 13.008C310.033 10.992 311.857 9.24003 314.209 7.75203C316.609 6.21603 319.393 4.94403 322.561 3.93603C325.777 2.92803 329.281 2.16003 333.073 1.63203C336.913 1.10403 340.921 0.840027 345.097 0.840027C351.001 0.840027 356.281 1.36803 360.937 2.42403C365.641 3.48003 369.577 4.99202 372.745 6.96003C375.961 8.92803 378.265 11.28 379.657 14.016C381.049 16.752 381.385 19.824 380.665 23.232L350.929 24.6C351.457 23.208 351.433 22.08 350.857 21.216C350.281 20.304 349.369 19.656 348.121 19.272C346.921 18.84 345.553 18.624 344.017 18.624C343.057 18.624 342.193 18.72 341.425 18.912C340.657 19.056 339.985 19.296 339.409 19.632C338.881 19.92 338.449 20.28 338.113 20.712C337.825 21.144 337.681 21.6 337.681 22.08C337.681 22.656 337.873 23.136 338.257 23.52C338.641 23.856 339.217 24.096 339.985 24.24C340.801 24.384 341.857 24.456 343.153 24.456C343.249 24.456 343.345 24.456 343.441 24.456C343.585 24.456 343.705 24.456 343.801 24.456C343.945 24.456 344.065 24.456 344.161 24.456C344.305 24.456 344.425 24.456 344.521 24.456C344.665 24.456 344.809 24.456 344.953 24.456Z" fill="white"/>
</svg>
