<svg width="426" height="147" viewBox="0 0 426 147" fill="none" xmlns="http://www.w3.org/2000/svg">
<path d="M98.9998 84C98.9998 88 98.9998 92 98.9998 96C98.9998 100 98.9998 104 98.9998 108C98.9998 112 98.9998 116 98.9998 120C98.9998 124 98.9998 128 98.9998 132C98.9998 136 98.9998 140 98.9998 144H68.1998C68.1998 138.453 68.1998 132.907 68.1998 127.36C68.1998 121.813 68.1998 116.267 68.1998 110.72C68.1998 110.667 68.1731 110.64 68.1198 110.64C68.1198 110.64 68.0931 110.64 68.0398 110.64C68.0398 110.64 68.0398 110.667 68.0398 110.72L60.1998 144H39.7998C38.4665 138.453 37.1598 132.933 35.8798 127.44C34.5998 121.947 33.2931 116.453 31.9598 110.96C31.9598 110.907 31.9331 110.88 31.8798 110.88C31.8798 110.88 31.8531 110.88 31.7998 110.88C31.7998 110.88 31.7998 110.907 31.7998 110.96C31.7998 116.453 31.7998 121.947 31.7998 127.44C31.7998 132.933 31.7998 138.453 31.7998 144H2.5998C2.5998 140 2.5998 136 2.5998 132C2.5998 127.947 2.5998 123.92 2.5998 119.92C2.5998 115.867 2.5998 111.84 2.5998 107.84C2.5998 103.787 2.5998 99.76 2.5998 95.76C2.5998 93.7867 2.5998 91.84 2.5998 89.92C2.5998 87.9467 2.5998 85.9733 2.5998 84H45.2398C46.0398 87.3067 46.8131 90.6133 47.5598 93.92C48.3065 97.1733 49.0531 100.453 49.7998 103.76C50.5998 107.067 51.3731 110.373 52.1198 113.68C52.1198 113.733 52.1198 113.787 52.1198 113.84C52.1731 113.84 52.1998 113.84 52.1998 113.84C52.2531 113.787 52.2798 113.733 52.2798 113.68L58.6798 84H98.9998Z" fill="white"/>
<path d="M169.489 104.16H134.689C134.636 104.16 134.609 104.16 134.609 104.16V108.56C134.609 108.613 134.609 108.667 134.609 108.72C134.663 108.72 134.689 108.72 134.689 108.72H168.289V120H134.689C134.689 120 134.663 120 134.609 120C134.609 120 134.609 120.027 134.609 120.08C134.609 120.08 134.609 120.107 134.609 120.16V124.64C134.663 124.64 134.689 124.64 134.689 124.64H169.969V144H102.209C102.209 140.853 102.209 137.707 102.209 134.56C102.209 131.36 102.209 128.187 102.209 125.04C102.209 121.893 102.209 118.747 102.209 115.6C102.209 112.4 102.209 109.227 102.209 106.08C102.209 102.88 102.209 99.7067 102.209 96.56C102.209 94.48 102.209 92.4 102.209 90.32C102.209 88.1867 102.209 86.08 102.209 84H169.489V104.16Z" fill="white"/>
<path d="M220.27 84H251.07C251.07 85.9733 251.07 87.9733 251.07 90C251.07 91.9733 251.07 93.9733 251.07 96C251.07 97.9733 251.07 99.9733 251.07 102C251.07 103.973 251.07 105.973 251.07 108C251.07 109.973 251.07 111.973 251.07 114C251.07 119.013 251.07 124.027 251.07 129.04C251.07 134 251.07 138.987 251.07 144H214.03L203.95 115.2C203.95 115.147 203.924 115.12 203.87 115.12C203.87 115.12 203.844 115.12 203.79 115.12C203.79 115.12 203.79 115.147 203.79 115.2C203.79 119.893 203.79 124.693 203.79 129.6C203.79 134.507 203.79 139.307 203.79 144H172.99C172.99 140 172.99 136 172.99 132C172.99 128 172.99 124 172.99 120C172.99 116 172.99 112 172.99 108C172.99 104 172.99 100 172.99 96C172.99 92 172.99 88 172.99 84H208.83L220.11 117.2C220.164 117.2 220.19 117.2 220.19 117.2C220.244 117.2 220.27 117.2 220.27 117.2C220.27 117.147 220.27 117.12 220.27 117.12V84Z" fill="white"/>
<path d="M254.24 84H287.44C287.44 89.8133 287.44 95.2533 287.44 100.32C287.44 105.387 287.44 110.453 287.44 115.52C287.44 116.32 287.6 117.013 287.92 117.6C288.294 118.187 288.747 118.693 289.28 119.12C289.867 119.493 290.507 119.787 291.2 120C291.947 120.213 292.694 120.32 293.44 120.32C294.987 120.32 296.374 119.92 297.6 119.12C298.827 118.32 299.44 117.147 299.44 115.6C299.44 113.04 299.44 110.507 299.44 108C299.44 105.493 299.44 102.96 299.44 100.4C299.44 97.84 299.44 95.2 299.44 92.48C299.44 89.76 299.44 86.9333 299.44 84H332.64C332.64 88.0533 332.64 92.2133 332.64 96.48C332.64 100.747 332.64 105.04 332.64 109.36C332.64 113.627 332.64 117.787 332.64 121.84C332.64 125.947 331.52 129.547 329.28 132.64C327.094 135.68 324.134 138.24 320.4 140.32C316.667 142.347 312.454 143.867 307.76 144.88C303.12 145.893 298.347 146.4 293.44 146.4C289.547 146.4 285.68 146.08 281.84 145.44C278.054 144.8 274.48 143.813 271.12 142.48C267.814 141.147 264.88 139.52 262.32 137.6C259.814 135.627 257.84 133.333 256.4 130.72C254.96 128.053 254.24 125.093 254.24 121.84C254.24 119.813 254.24 117.733 254.24 115.6C254.24 113.413 254.24 111.253 254.24 109.12C254.24 106.293 254.24 103.467 254.24 100.64C254.24 97.8133 254.24 95.0133 254.24 92.24C254.24 89.4133 254.24 86.6667 254.24 84Z" fill="white"/>
<path d="M44.7998 65.4C40.5865 65.4 36.6931 65.1333 33.1198 64.6C29.5465 64.0667 26.2398 63.2933 23.1998 62.28C20.2131 61.2667 17.5198 60.04 15.1198 58.6C12.7731 57.16 10.6931 55.5333 8.87981 53.72C7.06647 51.9067 5.54647 49.9333 4.3198 47.8C3.14647 45.6133 2.26647 43.2933 1.6798 40.84C1.09314 38.3867 0.799805 35.8 0.799805 33.08C0.799805 28.6533 1.5198 24.68 2.9598 21.16C4.3998 17.64 6.42647 14.6 9.03981 12.04C11.7065 9.48 14.8531 7.34667 18.4798 5.64001C22.1598 3.93334 26.2131 2.68001 30.6398 1.88C35.0665 1.02667 39.7865 0.600006 44.7998 0.600006C53.6531 0.600006 61.1731 1.66667 67.3598 3.80001C73.5465 5.93334 78.4265 9.00001 81.9998 13C85.6265 17 87.8931 21.8533 88.7998 27.56L54.7998 33.08C54.7998 31.8533 54.5331 30.8133 53.9998 29.96C53.4665 29.0533 52.7465 28.3333 51.8398 27.8C50.9331 27.2667 49.8665 26.8667 48.6398 26.6C47.4665 26.3333 46.1865 26.2 44.7998 26.2C42.8798 26.2 41.1731 26.4667 39.6798 27C38.1865 27.48 36.9865 28.2267 36.0798 29.24C35.2265 30.2 34.7998 31.4267 34.7998 32.92C34.7998 33.8267 34.9598 34.6533 35.2798 35.4C35.5998 36.1467 36.0531 36.8133 36.6398 37.4C37.2265 37.9333 37.9198 38.3867 38.7198 38.76C39.5731 39.08 40.5065 39.3467 41.5198 39.56C42.5331 39.72 43.6265 39.8 44.7998 39.8C47.6265 39.8 49.9998 39.24 51.9198 38.12C53.8398 36.9467 54.7998 35.2667 54.7998 33.08L88.7998 36.52C88.2131 40.4667 86.9065 44.1733 84.8798 47.64C82.9065 51.1067 80.1331 54.1733 76.5598 56.84C73.0398 59.5067 68.6398 61.5867 63.3598 63.08C58.1331 64.6267 51.9465 65.4 44.7998 65.4Z" fill="white"/>
<path d="M135.765 3H168.965C168.965 6.36001 168.965 9.72001 168.965 13.08C168.965 16.44 168.965 19.8 168.965 23.16C168.965 26.52 168.965 29.9067 168.965 33.32C168.965 38.2267 168.965 43.16 168.965 48.12C168.965 53.08 168.965 58.04 168.965 63H135.765C135.765 59.7467 135.765 56.4933 135.765 53.24C135.765 49.9867 135.765 46.7333 135.765 43.48C135.765 43.4267 135.739 43.4 135.685 43.4C135.685 43.3467 135.659 43.32 135.605 43.32H124.645C124.592 43.32 124.565 43.3467 124.565 43.4C124.565 43.4 124.565 43.4267 124.565 43.48C124.565 46.7333 124.565 49.9867 124.565 53.24C124.565 56.4933 124.565 59.7467 124.565 63H91.3654C91.3654 59.8 91.3654 56.6 91.3654 53.4C91.3654 50.2 91.3654 47 91.3654 43.8C91.3654 40.6 91.3654 37.4 91.3654 34.2C91.3654 31 91.3654 27.8 91.3654 24.6C91.3654 21.4 91.3654 18.2 91.3654 15C91.3654 12.9733 91.3654 10.9733 91.3654 9.00001C91.3654 6.97334 91.3654 4.97334 91.3654 3H124.565C124.565 5.56001 124.565 8.14667 124.565 10.76C124.565 13.3733 124.565 15.9867 124.565 18.6C124.565 21.16 124.565 23.7467 124.565 26.36C124.565 26.4133 124.565 26.4667 124.565 26.52C124.565 26.52 124.592 26.52 124.645 26.52H135.605C135.659 26.52 135.685 26.52 135.685 26.52C135.739 26.4667 135.765 26.4133 135.765 26.36C135.765 22.4667 135.765 18.5733 135.765 14.68C135.765 10.7867 135.765 6.89334 135.765 3Z" fill="white"/>
<path d="M237.187 3C238.147 6.30667 239.08 9.64001 239.987 13C240.947 16.3067 241.88 19.64 242.787 23C243.747 26.3067 244.707 29.64 245.667 33C246.627 36.3067 247.56 39.64 248.467 43C249.427 46.3067 250.36 49.64 251.267 53C252.227 56.3067 253.187 59.64 254.147 63H218.467L217.107 55.16C216.893 55.16 216.707 55.16 216.547 55.16C216.387 55.16 216.2 55.16 215.987 55.16H207.187C207.027 55.16 206.867 55.16 206.707 55.16C206.547 55.16 206.387 55.16 206.227 55.16L204.867 63H170.707C171.667 59.64 172.6 56.3067 173.507 53C174.467 49.64 175.4 46.3067 176.307 43C177.267 39.64 178.2 36.3067 179.107 33C180.067 29.64 181 26.3067 181.907 23C182.867 19.64 183.8 16.3067 184.707 13C185.667 9.64001 186.6 6.30667 187.507 3H237.187ZM207.187 49.48C207.187 49.5333 207.187 49.56 207.187 49.56C207.187 49.56 207.213 49.56 207.267 49.56H216.067C216.12 49.56 216.147 49.56 216.147 49.56C216.147 49.5067 216.147 49.48 216.147 49.48C216.147 49.48 216.04 48.84 215.827 47.56C215.613 46.2267 215.32 44.5733 214.947 42.6C214.627 40.5733 214.28 38.44 213.907 36.2C213.533 33.9067 213.187 31.7467 212.867 29.72C212.547 27.6933 212.253 26.04 211.987 24.76C211.773 23.48 211.667 22.84 211.667 22.84C211.667 22.84 211.64 22.84 211.587 22.84C211.587 22.84 211.48 23.48 211.267 24.76C211.053 26.04 210.76 27.6933 210.387 29.72C210.067 31.7467 209.72 33.9067 209.347 36.2C208.973 38.44 208.627 40.5733 208.307 42.6C207.987 44.5733 207.72 46.2267 207.507 47.56C207.293 48.84 207.187 49.48 207.187 49.48Z" fill="white"/>
<path d="M295.112 0.600006C304.926 0.600006 313.086 1.98667 319.592 4.76C326.099 7.53334 330.979 11.3467 334.232 16.2C337.486 21.0533 339.112 26.6267 339.112 32.92C339.112 36.3333 338.606 39.64 337.592 42.84C336.579 45.9867 334.979 48.9467 332.792 51.72C330.606 54.44 327.779 56.84 324.312 58.92C320.846 60.9467 316.686 62.52 311.832 63.64C307.032 64.8133 301.459 65.4 295.112 65.4C290.579 65.4 286.419 65.08 282.632 64.44C278.899 63.8533 275.512 63.0267 272.472 61.96C269.432 60.84 266.739 59.5067 264.392 57.96C262.099 56.4133 260.099 54.7067 258.392 52.84C256.739 50.92 255.352 48.8933 254.232 46.76C253.166 44.6267 252.366 42.3867 251.832 40.04C251.352 37.6933 251.112 35.32 251.112 32.92C251.112 29.7733 251.512 26.7867 252.312 23.96C253.166 21.1333 254.392 18.52 255.992 16.12C257.646 13.72 259.672 11.5867 262.072 9.72001C264.526 7.80001 267.379 6.17334 270.632 4.84C273.886 3.45334 277.539 2.41334 281.592 1.72001C285.699 0.973339 290.206 0.600006 295.112 0.600006ZM295.192 26.04C293.326 26.04 291.726 26.2533 290.392 26.68C289.112 27.0533 288.072 27.5867 287.272 28.28C286.526 28.92 285.966 29.6667 285.592 30.52C285.272 31.32 285.112 32.1467 285.112 33C285.112 34.12 285.432 35.2133 286.072 36.28C286.712 37.3467 287.779 38.2267 289.272 38.92C290.766 39.6133 292.739 39.96 295.192 39.96C296.632 39.96 297.886 39.8267 298.952 39.56C300.072 39.2933 301.006 38.9467 301.752 38.52C302.552 38.04 303.192 37.5067 303.672 36.92C304.206 36.28 304.579 35.64 304.792 35C305.006 34.3067 305.112 33.6133 305.112 32.92C305.112 32.12 304.926 31.32 304.552 30.52C304.232 29.72 303.699 29 302.952 28.36C302.206 27.6667 301.192 27.1067 299.912 26.68C298.632 26.2533 297.059 26.04 295.192 26.04Z" fill="white"/>
<path d="M383.282 26.84C391.282 26.84 397.975 27.1867 403.362 27.88C408.748 28.5733 413.042 29.6667 416.242 31.16C419.442 32.6 421.735 34.4667 423.122 36.76C424.508 39 425.202 41.6667 425.202 44.76C425.202 48.12 424.108 51.1067 421.922 53.72C419.788 56.28 416.775 58.44 412.882 60.2C409.042 61.9067 404.562 63.1867 399.442 64.04C394.375 64.9467 388.908 65.4 383.042 65.4C376.535 65.4 370.615 64.92 365.282 63.96C359.948 63 355.415 61.5333 351.682 59.56C347.948 57.5333 345.148 54.9467 343.282 51.8C341.468 48.6533 340.748 44.8933 341.122 40.52L375.282 38.2C374.855 39.8 374.962 41.1333 375.602 42.2C376.295 43.2667 377.362 44.0667 378.802 44.6C380.242 45.1333 381.842 45.4 383.602 45.4C384.668 45.4 385.628 45.32 386.482 45.16C387.388 45 388.188 44.76 388.882 44.44C389.575 44.12 390.108 43.72 390.482 43.24C390.855 42.7067 391.042 42.12 391.042 41.48C391.042 40.2 390.375 39.3733 389.042 39C387.762 38.6267 385.868 38.44 383.362 38.44C383.255 38.44 383.122 38.44 382.962 38.44C382.855 38.44 382.722 38.44 382.562 38.44C382.455 38.44 382.322 38.44 382.162 38.44C382.002 38.44 381.842 38.44 381.682 38.44C381.575 38.44 381.468 38.44 381.362 38.44C373.468 38.44 366.908 38.04 361.682 37.24C356.455 36.3867 352.322 35.2133 349.282 33.72C346.242 32.2267 344.082 30.4667 342.802 28.44C341.522 26.36 340.882 24.04 340.882 21.48C340.882 18.76 341.602 16.3067 343.042 14.12C344.482 11.88 346.508 9.93334 349.122 8.28001C351.788 6.57334 354.882 5.16001 358.402 4.04C361.975 2.92001 365.868 2.06667 370.082 1.48C374.348 0.893339 378.802 0.600006 383.442 0.600006C390.002 0.600006 395.868 1.18667 401.042 2.36001C406.268 3.53334 410.642 5.21334 414.162 7.4C417.735 9.58667 420.295 12.2 421.842 15.24C423.388 18.28 423.762 21.6933 422.962 25.48L389.922 27C390.508 25.4533 390.482 24.2 389.842 23.24C389.202 22.2267 388.188 21.5067 386.802 21.08C385.468 20.6 383.948 20.36 382.242 20.36C381.175 20.36 380.215 20.4667 379.362 20.68C378.508 20.84 377.762 21.1067 377.122 21.48C376.535 21.8 376.055 22.2 375.682 22.68C375.362 23.16 375.202 23.6667 375.202 24.2C375.202 24.84 375.415 25.3733 375.842 25.8C376.268 26.1733 376.908 26.44 377.762 26.6C378.668 26.76 379.842 26.84 381.282 26.84C381.388 26.84 381.495 26.84 381.602 26.84C381.762 26.84 381.895 26.84 382.002 26.84C382.162 26.84 382.295 26.84 382.402 26.84C382.562 26.84 382.695 26.84 382.802 26.84C382.962 26.84 383.122 26.84 383.282 26.84Z" fill="white"/>
</svg>
