<svg width="396" height="187" viewBox="0 0 396 187" fill="none" xmlns="http://www.w3.org/2000/svg">
<path d="M38.5 93.7C34.8133 93.7 31.4067 93.4667 28.28 93C25.1533 92.5333 22.26 91.8567 19.6 90.97C16.9867 90.0833 14.63 89.01 12.53 87.75C10.4767 86.49 8.65667 85.0667 7.07 83.48C5.48333 81.8933 4.15333 80.1667 3.08 78.3C2.05333 76.3867 1.28333 74.3567 0.77 72.21C0.256667 70.0633 0 67.8 0 65.42C0 61.5467 0.63 58.07 1.89 54.99C3.15 51.91 4.92333 49.25 7.21 47.01C9.54333 44.77 12.2967 42.9033 15.47 41.41C18.69 39.9167 22.2367 38.82 26.11 38.12C29.9833 37.3733 34.1133 37 38.5 37C46.2467 37 52.8267 37.9333 58.24 39.8C63.6533 41.6667 67.9233 44.35 71.05 47.85C74.2233 51.35 76.2067 55.5967 77 60.59L47.25 65.42C47.25 64.3467 47.0167 63.4367 46.55 62.69C46.0833 61.8967 45.4533 61.2667 44.66 60.8C43.8667 60.3333 42.9333 59.9833 41.86 59.75C40.8333 59.5167 39.7133 59.4 38.5 59.4C36.82 59.4 35.3267 59.6333 34.02 60.1C32.7133 60.52 31.6633 61.1733 30.87 62.06C30.1233 62.9 29.75 63.9733 29.75 65.28C29.75 66.0733 29.89 66.7967 30.17 67.45C30.45 68.1033 30.8467 68.6867 31.36 69.2C31.8733 69.6667 32.48 70.0633 33.18 70.39C33.9267 70.67 34.7433 70.9033 35.63 71.09C36.5167 71.23 37.4733 71.3 38.5 71.3C40.9733 71.3 43.05 70.81 44.73 69.83C46.41 68.8033 47.25 67.3333 47.25 65.42L77 68.43C76.4867 71.8833 75.3433 75.1267 73.57 78.16C71.8433 81.1933 69.4167 83.8767 66.29 86.21C63.21 88.5433 59.36 90.3633 54.74 91.67C50.1667 93.0233 44.7533 93.7 38.5 93.7Z" fill="white"/>
<path d="M118.095 39.1H147.145C147.145 42.04 147.145 44.98 147.145 47.92C147.145 50.86 147.145 53.8 147.145 56.74C147.145 59.68 147.145 62.6433 147.145 65.63C147.145 69.9233 147.145 74.24 147.145 78.58C147.145 82.92 147.145 87.26 147.145 91.6H118.095C118.095 88.7533 118.095 85.9067 118.095 83.06C118.095 80.2133 118.095 77.3667 118.095 74.52C118.095 74.4733 118.072 74.45 118.025 74.45C118.025 74.4033 118.002 74.38 117.955 74.38H108.365C108.318 74.38 108.295 74.4033 108.295 74.45C108.295 74.45 108.295 74.4733 108.295 74.52C108.295 77.3667 108.295 80.2133 108.295 83.06C108.295 85.9067 108.295 88.7533 108.295 91.6H79.2449C79.2449 88.8 79.2449 86 79.2449 83.2C79.2449 80.4 79.2449 77.6 79.2449 74.8C79.2449 72 79.2449 69.2 79.2449 66.4C79.2449 63.6 79.2449 60.8 79.2449 58C79.2449 55.2 79.2449 52.4 79.2449 49.6C79.2449 47.8267 79.2449 46.0767 79.2449 44.35C79.2449 42.5767 79.2449 40.8267 79.2449 39.1H108.295C108.295 41.34 108.295 43.6033 108.295 45.89C108.295 48.1767 108.295 50.4633 108.295 52.75C108.295 54.99 108.295 57.2533 108.295 59.54C108.295 59.5867 108.295 59.6333 108.295 59.68C108.295 59.68 108.318 59.68 108.365 59.68H117.955C118.002 59.68 118.025 59.68 118.025 59.68C118.072 59.6333 118.095 59.5867 118.095 59.54C118.095 56.1333 118.095 52.7267 118.095 49.32C118.095 45.9133 118.095 42.5067 118.095 39.1Z" fill="white"/>
<path d="M206.839 39.1C207.679 41.9933 208.495 44.91 209.289 47.85C210.129 50.7433 210.945 53.66 211.739 56.6C212.579 59.4933 213.419 62.41 214.259 65.35C215.099 68.2433 215.915 71.16 216.709 74.1C217.549 76.9933 218.365 79.91 219.159 82.85C219.999 85.7433 220.839 88.66 221.679 91.6H190.459L189.269 84.74C189.082 84.74 188.919 84.74 188.779 84.74C188.639 84.74 188.475 84.74 188.289 84.74H180.589C180.449 84.74 180.309 84.74 180.169 84.74C180.029 84.74 179.889 84.74 179.749 84.74L178.559 91.6H148.669C149.509 88.66 150.325 85.7433 151.119 82.85C151.959 79.91 152.775 76.9933 153.569 74.1C154.409 71.16 155.225 68.2433 156.019 65.35C156.859 62.41 157.675 59.4933 158.469 56.6C159.309 53.66 160.125 50.7433 160.919 47.85C161.759 44.91 162.575 41.9933 163.369 39.1H206.839ZM180.589 79.77C180.589 79.8167 180.589 79.84 180.589 79.84C180.589 79.84 180.612 79.84 180.659 79.84H188.359C188.405 79.84 188.429 79.84 188.429 79.84C188.429 79.7933 188.429 79.77 188.429 79.77C188.429 79.77 188.335 79.21 188.149 78.09C187.962 76.9233 187.705 75.4767 187.379 73.75C187.099 71.9767 186.795 70.11 186.469 68.15C186.142 66.1433 185.839 64.2533 185.559 62.48C185.279 60.7067 185.022 59.26 184.789 58.14C184.602 57.02 184.509 56.46 184.509 56.46C184.509 56.46 184.485 56.46 184.439 56.46C184.439 56.46 184.345 57.02 184.159 58.14C183.972 59.26 183.715 60.7067 183.389 62.48C183.109 64.2533 182.805 66.1433 182.479 68.15C182.152 70.11 181.849 71.9767 181.569 73.75C181.289 75.4767 181.055 76.9233 180.869 78.09C180.682 79.21 180.589 79.77 180.589 79.77Z" fill="white"/>
<path d="M257.523 37C266.11 37 273.25 38.2133 278.943 40.64C284.637 43.0667 288.907 46.4033 291.753 50.65C294.6 54.8967 296.023 59.7733 296.023 65.28C296.023 68.2667 295.58 71.16 294.693 73.96C293.807 76.7133 292.407 79.3033 290.493 81.73C288.58 84.11 286.107 86.21 283.073 88.03C280.04 89.8033 276.4 91.18 272.153 92.16C267.953 93.1867 263.077 93.7 257.523 93.7C253.557 93.7 249.917 93.42 246.603 92.86C243.337 92.3467 240.373 91.6233 237.713 90.69C235.053 89.71 232.697 88.5433 230.643 87.19C228.637 85.8367 226.887 84.3433 225.393 82.71C223.947 81.03 222.733 79.2567 221.753 77.39C220.82 75.5233 220.12 73.5633 219.653 71.51C219.233 69.4567 219.023 67.38 219.023 65.28C219.023 62.5267 219.373 59.9133 220.073 57.44C220.82 54.9667 221.893 52.68 223.293 50.58C224.74 48.48 226.513 46.6133 228.613 44.98C230.76 43.3 233.257 41.8767 236.103 40.71C238.95 39.4967 242.147 38.5867 245.693 37.98C249.287 37.3267 253.23 37 257.523 37ZM257.593 59.26C255.96 59.26 254.56 59.4467 253.393 59.82C252.273 60.1467 251.363 60.6133 250.663 61.22C250.01 61.78 249.52 62.4333 249.193 63.18C248.913 63.88 248.773 64.6033 248.773 65.35C248.773 66.33 249.053 67.2867 249.613 68.22C250.173 69.1533 251.107 69.9233 252.413 70.53C253.72 71.1367 255.447 71.44 257.593 71.44C258.853 71.44 259.95 71.3233 260.883 71.09C261.863 70.8567 262.68 70.5533 263.333 70.18C264.033 69.76 264.593 69.2933 265.013 68.78C265.48 68.22 265.807 67.66 265.993 67.1C266.18 66.4933 266.273 65.8867 266.273 65.28C266.273 64.58 266.11 63.88 265.783 63.18C265.503 62.48 265.037 61.85 264.383 61.29C263.73 60.6833 262.843 60.1933 261.723 59.82C260.603 59.4467 259.227 59.26 257.593 59.26Z" fill="white"/>
<path d="M334.672 59.96C341.672 59.96 347.528 60.2633 352.242 60.87C356.955 61.4767 360.712 62.4333 363.512 63.74C366.312 65 368.318 66.6333 369.532 68.64C370.745 70.6 371.352 72.9333 371.352 75.64C371.352 78.58 370.395 81.1933 368.482 83.48C366.615 85.72 363.978 87.61 360.572 89.15C357.212 90.6433 353.292 91.7633 348.812 92.51C344.378 93.3033 339.595 93.7 334.462 93.7C328.768 93.7 323.588 93.28 318.922 92.44C314.255 91.6 310.288 90.3167 307.022 88.59C303.755 86.8167 301.305 84.5533 299.672 81.8C298.085 79.0467 297.455 75.7567 297.782 71.93L327.672 69.9C327.298 71.3 327.392 72.4667 327.952 73.4C328.558 74.3333 329.492 75.0333 330.752 75.5C332.012 75.9667 333.412 76.2 334.952 76.2C335.885 76.2 336.725 76.13 337.472 75.99C338.265 75.85 338.965 75.64 339.572 75.36C340.178 75.08 340.645 74.73 340.972 74.31C341.298 73.8433 341.462 73.33 341.462 72.77C341.462 71.65 340.878 70.9267 339.712 70.6C338.592 70.2733 336.935 70.11 334.742 70.11C334.648 70.11 334.532 70.11 334.392 70.11C334.298 70.11 334.182 70.11 334.042 70.11C333.948 70.11 333.832 70.11 333.692 70.11C333.552 70.11 333.412 70.11 333.272 70.11C333.178 70.11 333.085 70.11 332.992 70.11C326.085 70.11 320.345 69.76 315.772 69.06C311.198 68.3133 307.582 67.2867 304.922 65.98C302.262 64.6733 300.372 63.1333 299.252 61.36C298.132 59.54 297.572 57.51 297.572 55.27C297.572 52.89 298.202 50.7433 299.462 48.83C300.722 46.87 302.495 45.1667 304.782 43.72C307.115 42.2267 309.822 40.99 312.902 40.01C316.028 39.03 319.435 38.2833 323.122 37.77C326.855 37.2567 330.752 37 334.812 37C340.552 37 345.685 37.5133 350.212 38.54C354.785 39.5667 358.612 41.0367 361.692 42.95C364.818 44.8633 367.058 47.15 368.412 49.81C369.765 52.47 370.092 55.4567 369.392 58.77L340.482 60.1C340.995 58.7467 340.972 57.65 340.412 56.81C339.852 55.9233 338.965 55.2933 337.752 54.92C336.585 54.5 335.255 54.29 333.762 54.29C332.828 54.29 331.988 54.3833 331.242 54.57C330.495 54.71 329.842 54.9433 329.282 55.27C328.768 55.55 328.348 55.9 328.022 56.32C327.742 56.74 327.602 57.1833 327.602 57.65C327.602 58.21 327.788 58.6767 328.162 59.05C328.535 59.3767 329.095 59.61 329.842 59.75C330.635 59.89 331.662 59.96 332.922 59.96C333.015 59.96 333.108 59.96 333.202 59.96C333.342 59.96 333.458 59.96 333.552 59.96C333.692 59.96 333.808 59.96 333.902 59.96C334.042 59.96 334.158 59.96 334.252 59.96C334.392 59.96 334.532 59.96 334.672 59.96Z" fill="white"/>
<path d="M85.05 132.1C85.05 135.6 85.05 139.1 85.05 142.6C85.05 146.1 85.05 149.6 85.05 153.1C85.05 156.6 85.05 160.1 85.05 163.6C85.05 167.1 85.05 170.6 85.05 174.1C85.05 177.6 85.05 181.1 85.05 184.6H58.1C58.1 179.747 58.1 174.893 58.1 170.04C58.1 165.187 58.1 160.333 58.1 155.48C58.1 155.433 58.0767 155.41 58.03 155.41C58.03 155.41 58.0067 155.41 57.96 155.41C57.96 155.41 57.96 155.433 57.96 155.48L51.1 184.6H33.25C32.0833 179.747 30.94 174.917 29.82 170.11C28.7 165.303 27.5567 160.497 26.39 155.69C26.39 155.643 26.3667 155.62 26.32 155.62C26.32 155.62 26.2967 155.62 26.25 155.62C26.25 155.62 26.25 155.643 26.25 155.69C26.25 160.497 26.25 165.303 26.25 170.11C26.25 174.917 26.25 179.747 26.25 184.6H0.7C0.7 181.1 0.7 177.6 0.7 174.1C0.7 170.553 0.7 167.03 0.7 163.53C0.7 159.983 0.7 156.46 0.7 152.96C0.7 149.413 0.7 145.89 0.7 142.39C0.7 140.663 0.7 138.96 0.7 137.28C0.7 135.553 0.7 133.827 0.7 132.1H38.01C38.71 134.993 39.3867 137.887 40.04 140.78C40.6933 143.627 41.3467 146.497 42 149.39C42.7 152.283 43.3767 155.177 44.03 158.07C44.03 158.117 44.03 158.163 44.03 158.21C44.0767 158.21 44.1 158.21 44.1 158.21C44.1467 158.163 44.17 158.117 44.17 158.07L49.77 132.1H85.05Z" fill="white"/>
<path d="M146.728 149.74H116.278C116.232 149.74 116.208 149.74 116.208 149.74V153.59C116.208 153.637 116.208 153.683 116.208 153.73C116.255 153.73 116.278 153.73 116.278 153.73H145.678V163.6H116.278C116.278 163.6 116.255 163.6 116.208 163.6C116.208 163.6 116.208 163.623 116.208 163.67C116.208 163.67 116.208 163.693 116.208 163.74V167.66C116.255 167.66 116.278 167.66 116.278 167.66H147.148V184.6H87.8582C87.8582 181.847 87.8582 179.093 87.8582 176.34C87.8582 173.54 87.8582 170.763 87.8582 168.01C87.8582 165.257 87.8582 162.503 87.8582 159.75C87.8582 156.95 87.8582 154.173 87.8582 151.42C87.8582 148.62 87.8582 145.843 87.8582 143.09C87.8582 141.27 87.8582 139.45 87.8582 137.63C87.8582 135.763 87.8582 133.92 87.8582 132.1H146.728V149.74Z" fill="white"/>
<path d="M191.162 132.1H218.112C218.112 133.827 218.112 135.577 218.112 137.35C218.112 139.077 218.112 140.827 218.112 142.6C218.112 144.327 218.112 146.077 218.112 147.85C218.112 149.577 218.112 151.327 218.112 153.1C218.112 154.827 218.112 156.577 218.112 158.35C218.112 162.737 218.112 167.123 218.112 171.51C218.112 175.85 218.112 180.213 218.112 184.6H185.702L176.882 159.4C176.882 159.353 176.858 159.33 176.812 159.33C176.812 159.33 176.788 159.33 176.742 159.33C176.742 159.33 176.742 159.353 176.742 159.4C176.742 163.507 176.742 167.707 176.742 172C176.742 176.293 176.742 180.493 176.742 184.6H149.792C149.792 181.1 149.792 177.6 149.792 174.1C149.792 170.6 149.792 167.1 149.792 163.6C149.792 160.1 149.792 156.6 149.792 153.1C149.792 149.6 149.792 146.1 149.792 142.6C149.792 139.1 149.792 135.6 149.792 132.1H181.152L191.022 161.15C191.068 161.15 191.092 161.15 191.092 161.15C191.138 161.15 191.162 161.15 191.162 161.15C191.162 161.103 191.162 161.08 191.162 161.08V132.1Z" fill="white"/>
<path d="M220.886 132.1H249.936C249.936 137.187 249.936 141.947 249.936 146.38C249.936 150.813 249.936 155.247 249.936 159.68C249.936 160.38 250.076 160.987 250.356 161.5C250.682 162.013 251.079 162.457 251.546 162.83C252.059 163.157 252.619 163.413 253.226 163.6C253.879 163.787 254.532 163.88 255.186 163.88C256.539 163.88 257.752 163.53 258.826 162.83C259.899 162.13 260.436 161.103 260.436 159.75C260.436 157.51 260.436 155.293 260.436 153.1C260.436 150.907 260.436 148.69 260.436 146.45C260.436 144.21 260.436 141.9 260.436 139.52C260.436 137.14 260.436 134.667 260.436 132.1H289.486C289.486 135.647 289.486 139.287 289.486 143.02C289.486 146.753 289.486 150.51 289.486 154.29C289.486 158.023 289.486 161.663 289.486 165.21C289.486 168.803 288.506 171.953 286.546 174.66C284.632 177.32 282.042 179.56 278.776 181.38C275.509 183.153 271.822 184.483 267.716 185.37C263.656 186.257 259.479 186.7 255.186 186.7C251.779 186.7 248.396 186.42 245.036 185.86C241.722 185.3 238.596 184.437 235.656 183.27C232.762 182.103 230.196 180.68 227.956 179C225.762 177.273 224.036 175.267 222.776 172.98C221.516 170.647 220.886 168.057 220.886 165.21C220.886 163.437 220.886 161.617 220.886 159.75C220.886 157.837 220.886 155.947 220.886 154.08C220.886 151.607 220.886 149.133 220.886 146.66C220.886 144.187 220.886 141.737 220.886 139.31C220.886 136.837 220.886 134.433 220.886 132.1Z" fill="white"/>
</svg>
