<svg width="852" height="188" viewBox="0 0 852 188" fill="none" xmlns="http://www.w3.org/2000/svg">
<path d="M135.2 180L100.4 90C103.6 82.48 106.72 74.96 109.76 67.44C112.8 59.92 115.84 52.48 118.88 45.12C122.08 37.6 125.2 30.08 128.24 22.56C131.44 15.04 134.56 7.52001 137.6 0H245.6C242.88 5.6 239.68 12.08 236 19.44C232.32 26.8 228.56 34.24 224.72 41.76C221.04 49.28 217.6 56.24 214.4 62.64C211.2 69.04 208.56 74.24 206.48 78.24C204.56 82.08 203.6 84 203.6 84C203.6 84 204.64 86.32 206.72 90.96C208.8 95.44 211.52 101.36 214.88 108.72C218.24 116.08 221.92 124.08 225.92 132.72C229.92 141.2 233.84 149.6 237.68 157.92C241.52 166.24 244.96 173.6 248 180H135.2ZM0.799805 180C0.799805 168.32 0.799805 156.64 0.799805 144.96C0.799805 133.12 0.799805 121.36 0.799805 109.68C0.799805 98 0.799805 86.32 0.799805 74.64C0.799805 62.8 0.799805 51.04 0.799805 39.36C0.799805 32.8 0.799805 26.24 0.799805 19.68C0.799805 13.12 0.799805 6.56 0.799805 0H100.4C100.4 7.36 100.4 14.72 100.4 22.08C100.4 29.44 100.4 36.8 100.4 44.16C100.4 51.52 100.4 58.88 100.4 66.24C100.4 73.6 100.4 80.96 100.4 88.32C100.4 88.48 100.4 88.72 100.4 89.04C100.4 89.36 100.4 89.68 100.4 90C100.4 90.16 100.4 90.32 100.4 90.48C100.4 90.64 100.4 90.88 100.4 91.2C100.4 91.36 100.4 91.52 100.4 91.68C100.4 106.4 100.4 121.12 100.4 135.84C100.4 150.56 100.4 165.28 100.4 180H0.799805Z" fill="white"/>
<path d="M259.591 39.84C271.271 34.56 283.911 30.64 297.511 28.08C311.271 25.36 325.031 24 338.791 24C352.231 24 365.191 25.28 377.671 27.84C390.151 30.4 401.271 34.32 411.031 39.6C420.951 44.88 428.791 51.44 434.551 59.28C440.311 67.12 443.191 76.32 443.191 86.88C443.191 102.4 443.191 117.92 443.191 133.44C443.191 148.96 443.191 164.48 443.191 180C437.591 180 431.991 180 426.391 180C420.791 180 415.191 180 409.591 180C403.991 180 398.391 180 392.791 180C387.191 180 381.591 180 375.991 180C370.391 180 364.791 180 359.191 180C359.191 171.52 359.191 163.12 359.191 154.8C359.191 146.32 359.191 137.92 359.191 129.6C359.191 126.72 358.231 124.4 356.311 122.64C354.391 120.88 352.071 119.68 349.351 119.04C346.631 118.24 343.911 117.84 341.191 117.84C335.111 117.84 330.471 119.04 327.271 121.44C324.231 123.84 322.711 126.56 322.711 129.6C322.711 132.64 324.311 135.44 327.511 138C330.711 140.4 335.271 141.6 341.191 141.6C344.071 141.6 347.351 141.04 351.031 139.92C354.711 138.8 357.511 135.92 359.431 131.28C356.071 139.12 352.631 146.96 349.111 154.8C345.751 162.64 342.391 170.48 339.031 178.32C333.271 181.2 327.191 183.2 320.791 184.32C314.551 185.6 308.311 186.24 302.071 186.24C294.551 186.24 287.271 185.2 280.231 183.12C273.351 181.2 267.111 178.32 261.511 174.48C256.071 170.64 251.751 165.84 248.551 160.08C245.351 154.32 243.751 147.6 243.751 139.92C243.751 135.28 244.551 130.72 246.151 126.24C247.751 121.76 250.151 117.52 253.351 113.52C256.551 109.52 260.551 106 265.351 102.96C270.311 99.92 276.151 97.6 282.871 96C289.591 94.24 297.271 93.36 305.911 93.36C311.511 93.36 316.951 93.84 322.231 94.8C327.511 95.6 332.471 96.88 337.111 98.64C341.911 100.4 346.151 102.56 349.831 105.12C353.671 107.68 356.791 110.56 359.191 113.76C359.191 113.44 359.191 113.2 359.191 113.04C359.191 112.72 359.191 112.48 359.191 112.32C359.191 112 359.191 111.76 359.191 111.6C359.191 106.64 357.911 102.4 355.351 98.88C352.951 95.2 349.591 92.24 345.271 90C341.111 87.6 336.231 85.84 330.631 84.72C325.191 83.6 319.431 83.04 313.351 83.04C303.911 83.04 294.391 84.24 284.791 86.64C275.191 89.04 266.791 92.56 259.591 97.2V39.84Z" fill="white"/>
<path d="M558.04 187.2C548.12 187.2 538.52 186.48 529.24 185.04C519.96 183.6 511.32 181.44 503.32 178.56C495.32 175.52 488.04 171.76 481.48 167.28C474.92 162.8 469.32 157.6 464.68 151.68C460.04 145.6 456.44 138.8 453.88 131.28C451.32 123.6 450.04 115.12 450.04 105.84C450.04 94.96 451.8 85.2 455.32 76.56C459 67.76 464.12 60.08 470.68 53.52C477.4 46.96 485.24 41.52 494.2 37.2C503.16 32.72 513 29.44 523.72 27.36C534.6 25.12 546.04 24 558.04 24C573.08 24 587.08 25.76 600.04 29.28C613.16 32.64 624.6 37.76 634.36 44.64C644.28 51.36 652.04 59.84 657.64 70.08C663.24 80.32 666.04 92.24 666.04 105.84C666.04 119.44 663.24 131.36 657.64 141.6C652.04 151.68 644.28 160.16 634.36 167.04C624.6 173.76 613.16 178.8 600.04 182.16C587.08 185.52 573.08 187.2 558.04 187.2ZM558.28 123.6C568.2 123.6 575.24 121.68 579.4 117.84C583.56 114 585.64 109.84 585.64 105.36C585.64 103.28 585.16 101.2 584.2 99.12C583.24 97.04 581.72 95.12 579.64 93.36C577.56 91.6 574.76 90.24 571.24 89.28C567.72 88.16 563.4 87.6 558.28 87.6C553.16 87.6 548.76 88.16 545.08 89.28C541.56 90.24 538.68 91.6 536.44 93.36C534.36 95.12 532.84 97.04 531.88 99.12C530.92 101.2 530.44 103.36 530.44 105.6C530.44 107.84 530.92 110.08 531.88 112.32C532.84 114.4 534.44 116.32 536.68 118.08C538.92 119.68 541.8 121.04 545.32 122.16C548.84 123.12 553.16 123.6 558.28 123.6Z" fill="white"/>
<path d="M670.822 78.72C670.822 69.6 673.382 61.68 678.502 54.96C683.782 48.24 690.902 42.64 699.862 38.16C708.822 33.52 718.982 30.08 730.342 27.84C741.702 25.6 753.542 24.48 765.862 24.48C781.062 24.48 795.142 25.84 808.102 28.56C821.222 31.28 833.062 34.88 843.622 39.36V95.04C839.142 91.68 833.222 88.8 825.862 86.4C818.662 84 810.982 82.16 802.822 80.88C794.822 79.6 787.222 78.96 780.022 78.96C775.222 78.96 770.822 79.28 766.822 79.92C762.982 80.4 759.862 81.2 757.462 82.32C755.222 83.44 754.102 84.88 754.102 86.64C754.102 87.6 754.422 88.32 755.062 88.8C755.862 89.28 756.982 89.6 758.422 89.76C759.862 89.92 761.702 90 763.942 90C767.622 90 770.902 90 773.782 90C776.662 90 779.862 90 783.382 90C791.382 90 799.382 90.56 807.382 91.68C815.542 92.64 822.902 94.64 829.462 97.68C836.182 100.72 841.542 105.12 845.542 110.88C849.542 116.48 851.542 123.92 851.542 133.2C851.542 142.96 848.822 151.28 843.382 158.16C838.102 164.88 830.822 170.4 821.542 174.72C812.422 178.88 802.102 181.92 790.582 183.84C779.222 185.76 767.382 186.72 755.062 186.72C740.502 186.72 726.102 185.36 711.862 182.64C697.782 179.92 685.702 175.92 675.622 170.64V112.08C679.622 116.4 685.302 120 692.662 122.88C700.182 125.6 708.262 127.68 716.902 129.12C725.702 130.4 733.942 131.04 741.622 131.04C746.582 131.04 751.062 130.8 755.062 130.32C759.062 129.68 762.182 128.8 764.422 127.68C766.822 126.4 768.022 124.8 768.022 122.88C768.022 122.08 767.782 121.52 767.302 121.2C766.822 120.88 766.022 120.64 764.902 120.48C763.942 120.32 762.582 120.24 760.822 120.24C758.422 120.24 755.942 120.24 753.382 120.24C750.822 120.24 748.502 120.24 746.422 120.24C740.822 120.24 734.582 120.08 727.702 119.76C720.982 119.28 714.262 118.4 707.542 117.12C700.822 115.68 694.662 113.52 689.062 110.64C683.622 107.6 679.222 103.52 675.862 98.4C672.502 93.12 670.822 86.56 670.822 78.72Z" fill="white"/>
</svg>
