<svg width="188" height="852" viewBox="0 0 188 852" fill="none" xmlns="http://www.w3.org/2000/svg">
<path d="M7.9998 135.2L97.9998 100.4C105.52 103.6 113.04 106.72 120.56 109.76C128.08 112.8 135.52 115.84 142.88 118.88C150.4 122.08 157.92 125.2 165.44 128.24C172.96 131.44 180.48 134.56 188 137.6V245.6C182.4 242.88 175.92 239.68 168.56 236C161.2 232.32 153.76 228.56 146.24 224.72C138.72 221.04 131.76 217.6 125.36 214.4C118.96 211.2 113.76 208.56 109.76 206.48C105.92 204.56 104 203.6 104 203.6C104 203.6 101.68 204.64 97.0398 206.72C92.5598 208.8 86.6398 211.52 79.2798 214.88C71.9198 218.24 63.9198 221.92 55.2798 225.92C46.7998 229.92 38.3998 233.84 30.0798 237.68C21.7598 241.52 14.3998 244.96 7.9998 248V135.2ZM7.9998 0.800049C19.6798 0.800049 31.3598 0.800049 43.0398 0.800049C54.8798 0.800049 66.6398 0.800049 78.3198 0.800049C89.9998 0.800049 101.68 0.800049 113.36 0.800049C125.2 0.800049 136.96 0.800049 148.64 0.800049C155.2 0.800049 161.76 0.800049 168.32 0.800049C174.88 0.800049 181.44 0.800049 188 0.800049V100.4C180.64 100.4 173.28 100.4 165.92 100.4C158.56 100.4 151.2 100.4 143.84 100.4C136.48 100.4 129.12 100.4 121.76 100.4C114.4 100.4 107.04 100.4 99.6798 100.4C99.5198 100.4 99.2798 100.4 98.9598 100.4C98.6398 100.4 98.3198 100.4 97.9998 100.4C97.8398 100.4 97.6798 100.4 97.5198 100.4C97.3598 100.4 97.1198 100.4 96.7998 100.4C96.6398 100.4 96.4798 100.4 96.3198 100.4C81.5998 100.4 66.8798 100.4 52.1598 100.4C37.4398 100.4 22.7198 100.4 7.9998 100.4V0.800049Z" fill="white"/>
<path d="M148.16 259.591C153.44 271.271 157.36 283.911 159.92 297.511C162.64 311.271 164 325.031 164 338.791C164 352.231 162.72 365.191 160.16 377.671C157.6 390.151 153.68 401.271 148.4 411.031C143.12 420.951 136.56 428.791 128.72 434.551C120.88 440.311 111.68 443.191 101.12 443.191C85.5998 443.191 70.0798 443.191 54.5598 443.191C39.0398 443.191 23.5198 443.191 7.9998 443.191C7.9998 437.591 7.9998 431.991 7.9998 426.391C7.9998 420.791 7.9998 415.191 7.9998 409.591C7.9998 403.991 7.9998 398.391 7.9998 392.791C7.9998 387.191 7.9998 381.591 7.9998 375.991C7.9998 370.391 7.9998 364.791 7.9998 359.191C16.4798 359.191 24.8798 359.191 33.1998 359.191C41.6798 359.191 50.0798 359.191 58.3998 359.191C61.2798 359.191 63.5998 358.231 65.3598 356.311C67.1198 354.391 68.3198 352.071 68.9598 349.351C69.7598 346.631 70.1598 343.911 70.1598 341.191C70.1598 335.111 68.9598 330.471 66.5598 327.271C64.1598 324.231 61.4398 322.711 58.3998 322.711C55.3598 322.711 52.5598 324.311 49.9998 327.511C47.5998 330.711 46.3998 335.271 46.3998 341.191C46.3998 344.071 46.9598 347.351 48.0798 351.031C49.1998 354.711 52.0798 357.511 56.7198 359.431C48.8798 356.071 41.0398 352.631 33.1998 349.111C25.3598 345.751 17.5198 342.391 9.6798 339.031C6.7998 333.271 4.7998 327.191 3.6798 320.791C2.3998 314.551 1.7598 308.311 1.7598 302.071C1.7598 294.551 2.7998 287.271 4.87981 280.231C6.79981 273.351 9.67981 267.111 13.5198 261.511C17.3598 256.071 22.1598 251.751 27.9198 248.551C33.6798 245.351 40.3998 243.751 48.0798 243.751C52.7198 243.751 57.2798 244.551 61.7598 246.151C66.2398 247.751 70.4798 250.151 74.4798 253.351C78.4798 256.551 81.9998 260.551 85.0398 265.351C88.0798 270.311 90.3998 276.151 91.9998 282.871C93.7598 289.591 94.6398 297.271 94.6398 305.911C94.6398 311.511 94.1598 316.951 93.1998 322.231C92.3998 327.511 91.1198 332.471 89.3598 337.111C87.5998 341.911 85.4398 346.151 82.8798 349.831C80.3198 353.671 77.4398 356.791 74.2398 359.191C74.5598 359.191 74.7998 359.191 74.9598 359.191C75.2798 359.191 75.5198 359.191 75.6798 359.191C75.9998 359.191 76.2398 359.191 76.3998 359.191C81.3598 359.191 85.5998 357.911 89.1198 355.351C92.7998 352.951 95.7598 349.591 97.9998 345.271C100.4 341.111 102.16 336.231 103.28 330.631C104.4 325.191 104.96 319.431 104.96 313.351C104.96 303.911 103.76 294.391 101.36 284.791C98.9598 275.191 95.4398 266.791 90.7998 259.591H148.16Z" fill="white"/>
<path d="M0.799805 558.041C0.799805 548.121 1.5198 538.521 2.9598 529.241C4.3998 519.961 6.5598 511.321 9.43981 503.321C12.4798 495.321 16.2398 488.041 20.7198 481.481C25.1998 474.921 30.3998 469.321 36.3198 464.681C42.3998 460.041 49.1998 456.441 56.7198 453.881C64.3998 451.321 72.8798 450.041 82.1598 450.041C93.0398 450.041 102.8 451.801 111.44 455.321C120.24 459.001 127.92 464.121 134.48 470.681C141.04 477.401 146.48 485.241 150.8 494.201C155.28 503.161 158.56 513.001 160.64 523.721C162.88 534.601 164 546.041 164 558.041C164 573.081 162.24 587.081 158.72 600.041C155.36 613.161 150.24 624.601 143.36 634.361C136.64 644.281 128.16 652.041 117.92 657.641C107.68 663.241 95.7598 666.041 82.1598 666.041C68.5598 666.041 56.6398 663.241 46.3998 657.641C36.3198 652.041 27.8398 644.281 20.9598 634.361C14.2398 624.601 9.1998 613.161 5.8398 600.041C2.4798 587.081 0.799805 573.081 0.799805 558.041ZM64.3998 558.281C64.3998 568.201 66.3198 575.241 70.1598 579.401C73.9998 583.561 78.1598 585.641 82.6398 585.641C84.7198 585.641 86.7998 585.161 88.8798 584.201C90.9598 583.241 92.8798 581.721 94.6398 579.641C96.3998 577.561 97.7598 574.761 98.7198 571.241C99.8398 567.721 100.4 563.401 100.4 558.281C100.4 553.161 99.8398 548.761 98.7198 545.081C97.7598 541.561 96.3998 538.681 94.6398 536.441C92.8798 534.361 90.9598 532.841 88.8798 531.881C86.7998 530.921 84.6398 530.441 82.3998 530.441C80.1598 530.441 77.9198 530.921 75.6798 531.881C73.5998 532.841 71.6798 534.441 69.9198 536.681C68.3198 538.921 66.9598 541.801 65.8398 545.321C64.8798 548.841 64.3998 553.161 64.3998 558.281Z" fill="white"/>
<path d="M109.28 670.822C118.4 670.822 126.32 673.382 133.04 678.502C139.76 683.782 145.36 690.902 149.84 699.862C154.48 708.822 157.92 718.982 160.16 730.342C162.4 741.702 163.52 753.542 163.52 765.862C163.52 781.062 162.16 795.142 159.44 808.102C156.72 821.222 153.12 833.062 148.64 843.622H92.9598C96.3198 839.142 99.1998 833.222 101.6 825.862C104 818.662 105.84 810.982 107.12 802.822C108.4 794.822 109.04 787.222 109.04 780.022C109.04 775.222 108.72 770.822 108.08 766.822C107.6 762.982 106.8 759.862 105.68 757.462C104.56 755.222 103.12 754.102 101.36 754.102C100.4 754.102 99.6798 754.422 99.1998 755.062C98.7198 755.862 98.3998 756.982 98.2398 758.422C98.0798 759.862 97.9998 761.702 97.9998 763.942C97.9998 767.622 97.9998 770.902 97.9998 773.782C97.9998 776.662 97.9998 779.862 97.9998 783.382C97.9998 791.382 97.4398 799.382 96.3198 807.382C95.3598 815.542 93.3598 822.902 90.3198 829.462C87.2798 836.182 82.8798 841.542 77.1198 845.542C71.5198 849.542 64.0798 851.542 54.7998 851.542C45.0398 851.542 36.7198 848.822 29.8398 843.382C23.1198 838.102 17.5998 830.822 13.2798 821.542C9.1198 812.422 6.0798 802.102 4.1598 790.582C2.2398 779.222 1.2798 767.382 1.2798 755.062C1.2798 740.502 2.6398 726.102 5.3598 711.862C8.0798 697.782 12.0798 685.702 17.3598 675.622H75.9198C71.5998 679.622 67.9998 685.302 65.1198 692.662C62.3998 700.182 60.3198 708.262 58.8798 716.902C57.5998 725.702 56.9598 733.942 56.9598 741.622C56.9598 746.582 57.1998 751.062 57.6798 755.062C58.3198 759.062 59.1998 762.182 60.3198 764.422C61.5998 766.822 63.1998 768.022 65.1198 768.022C65.9198 768.022 66.4798 767.782 66.7998 767.302C67.1198 766.822 67.3598 766.022 67.5198 764.902C67.6798 763.942 67.7598 762.582 67.7598 760.822C67.7598 758.422 67.7598 755.942 67.7598 753.382C67.7598 750.822 67.7598 748.502 67.7598 746.422C67.7598 740.822 67.9198 734.582 68.2398 727.702C68.7198 720.982 69.5998 714.262 70.8798 707.542C72.3198 700.822 74.4798 694.662 77.3598 689.062C80.3998 683.622 84.4798 679.222 89.5998 675.862C94.8798 672.502 101.44 670.822 109.28 670.822Z" fill="white"/>
</svg>
