<svg width="137" height="60" viewBox="0 0 137 60" fill="none" xmlns="http://www.w3.org/2000/svg">
<path d="M136.274 30C136.274 33.9772 134.439 37.8052 131.04 41.3303C127.639 44.8579 122.693 48.0574 116.543 50.7553C104.245 56.1505 87.2192 59.5 68.3871 59.5C49.555 59.5 32.5296 56.1505 20.231 50.7553C14.0809 48.0574 9.13531 44.8579 5.73414 41.3303C2.33531 37.8052 0.5 33.9772 0.5 30C0.5 26.0228 2.33531 22.1948 5.73414 18.6697C9.13531 15.1421 14.0809 11.9426 20.231 9.24468C32.5296 3.84953 49.555 0.5 68.3871 0.5C87.2192 0.5 104.245 3.84953 116.543 9.24468C122.693 11.9426 127.639 15.1421 131.04 18.6697C134.439 22.1948 136.274 26.0228 136.274 30Z" stroke="white"/>
<path d="M113.477 30C113.477 38.062 108.51 45.4248 100.348 50.7955C92.1906 56.1635 80.8914 59.5 68.3853 59.5C55.8793 59.5 44.58 56.1635 36.4222 50.7955C28.2603 45.4248 23.2939 38.062 23.2939 30C23.2939 21.938 28.2603 14.5752 36.4222 9.20448C44.58 3.83648 55.8793 0.5 68.3853 0.5C80.8914 0.5 92.1906 3.83648 100.348 9.20448C108.51 14.5752 113.477 21.938 113.477 30Z" stroke="white"/>
<path d="M90.6832 30C90.6832 38.185 88.1617 45.5764 84.1084 50.9107C80.0553 56.2446 74.4925 59.5 68.3875 59.5C62.2825 59.5 56.7196 56.2446 52.6666 50.9107C48.6133 45.5764 46.0918 38.185 46.0918 30C46.0918 21.815 48.6133 14.4236 52.6666 9.0893C56.7196 3.75537 62.2825 0.5 68.3875 0.5C74.4925 0.5 80.0553 3.75537 84.1084 9.0893C88.1617 14.4236 90.6832 21.815 90.6832 30Z" stroke="white"/>
<path d="M68.3871 10.5C87.2379 10.5 104.285 12.7352 116.604 16.3378C122.766 18.14 127.717 20.2764 131.116 22.6264C134.53 24.9869 136.274 27.4869 136.274 30C136.274 32.5131 134.53 35.0131 131.116 37.3736C127.717 39.7236 122.766 41.86 116.604 43.6622C104.285 47.2648 87.2379 49.5 68.3871 49.5C49.5362 49.5 32.4889 47.2648 20.1705 43.6622C14.0079 41.86 9.05726 39.7236 5.65856 37.3736C2.24463 35.0131 0.5 32.5131 0.5 30C0.5 27.4869 2.24463 24.9869 5.65856 22.6264C9.05726 20.2764 14.0079 18.14 20.1705 16.3378C32.4889 12.7352 49.5362 10.5 68.3871 10.5Z" stroke="white"/>
<path d="M68.3871 20.5C87.2552 20.5 104.327 21.6185 116.672 23.4237C122.848 24.3268 127.82 25.3988 131.237 26.5801C132.948 27.1718 134.24 27.7811 135.094 28.3915C135.964 29.0132 136.274 29.557 136.274 30C136.274 30.443 135.964 30.9868 135.094 31.6085C134.24 32.2189 132.948 32.8282 131.237 33.4199C127.82 34.6012 122.848 35.6732 116.672 36.5763C104.327 38.3815 87.2552 39.5 68.3871 39.5C49.5189 39.5 32.4475 38.3815 20.1025 36.5763C13.9261 35.6732 8.95444 34.6012 5.53757 33.4199C3.82595 32.8282 2.53424 32.2189 1.68008 31.6085C0.809965 30.9868 0.5 30.443 0.5 30C0.5 29.557 0.809965 29.0132 1.68008 28.3915C2.53424 27.7811 3.82595 27.1718 5.53757 26.5801C8.95444 25.3988 13.9261 24.3268 20.1025 23.4237C32.4475 21.6185 49.5189 20.5 68.3871 20.5Z" stroke="white"/>
</svg>
